<svg width="21" height="20" viewBox="0 0 21 20" fill="none" xmlns="http://www.w3.org/2000/svg">
<path d="M12.2281 3.23787C12.8491 2.56506 13.1596 2.22865 13.4895 2.03243C14.2856 1.55896 15.2659 1.54423 16.0753 1.99359C16.4107 2.17982 16.7308 2.50676 17.3709 3.16062C18.011 3.81449 18.331 4.14143 18.5133 4.48409C18.9532 5.31092 18.9388 6.31232 18.4753 7.12558C18.2832 7.46262 17.9539 7.7798 17.2953 8.41416L9.45886 15.9619C8.21074 17.1641 7.58667 17.7651 6.80672 18.0698C6.02677 18.3744 5.16934 18.352 3.45448 18.3071L3.22115 18.301C2.69909 18.2874 2.43806 18.2806 2.28633 18.1084C2.13459 17.9362 2.15531 17.6703 2.19674 17.1385L2.21924 16.8497C2.33585 15.3529 2.39415 14.6046 2.68643 13.9318C2.97871 13.2591 3.48287 12.7129 4.49119 11.6204L12.2281 3.23787Z" stroke="white" stroke-width="1.5" stroke-linejoin="round"/>
<path d="M11.3333 3.33331L17.1667 9.16665" stroke="white" stroke-width="1.5" stroke-linejoin="round"/>
<path d="M12.1667 18.3333L18.8333 18.3333" stroke="white" stroke-width="1.5" stroke-linecap="round" stroke-linejoin="round"/>
</svg>
