<svg width="20" height="20" viewBox="0 0 20 20" fill="none" xmlns="http://www.w3.org/2000/svg">
<g clip-path="url(#clip0_89_6917)">
<path d="M11.728 3.23788C12.349 2.56507 12.6595 2.22867 12.9895 2.03244C13.7856 1.55897 14.7659 1.54425 15.5753 1.99361C15.9107 2.17984 16.2307 2.50677 16.8708 3.16064C17.5109 3.81451 17.8309 4.14144 18.0133 4.48411C18.4531 5.31094 18.4387 6.31233 17.9752 7.12559C17.7831 7.46264 17.4538 7.77982 16.7952 8.41418L8.95882 15.9619C7.71069 17.1641 7.08663 17.7651 6.30668 18.0698C5.52673 18.3744 4.66929 18.352 2.95443 18.3072L2.72111 18.3011C2.19905 18.2874 1.93802 18.2806 1.78628 18.1084C1.63454 17.9362 1.65526 17.6703 1.69669 17.1385L1.71919 16.8497C1.8358 15.353 1.8941 14.6046 2.18638 13.9319C2.47866 13.2591 2.98282 12.7129 3.99115 11.6204L11.728 3.23788Z" stroke="#464B69" stroke-width="1.5" stroke-linejoin="round"/>
<path d="M10.8333 3.33334L16.6666 9.16668" stroke="#464B69" stroke-width="1.5" stroke-linejoin="round"/>
<path d="M11.6666 18.3333L18.3333 18.3333" stroke="#464B69" stroke-width="1.5" stroke-linecap="round" stroke-linejoin="round"/>
</g>
<defs>
<clipPath id="clip0_89_6917">
<rect width="20" height="20" fill="white"/>
</clipPath>
</defs>
</svg>
