<svg width="48" height="48" viewBox="0 0 48 48" fill="none" xmlns="http://www.w3.org/2000/svg">
<circle cx="24" cy="24" r="24" fill="#EDEDF7"/>
<path d="M33.3175 19.1414L32.8239 18.2848C32.4506 17.637 32.264 17.313 31.9464 17.1839C31.6288 17.0547 31.2696 17.1566 30.5513 17.3605L29.3311 17.7042C28.8725 17.8099 28.3913 17.7499 27.9726 17.5348L27.6357 17.3404C27.2766 17.1104 27.0004 16.7713 26.8475 16.3727L26.5136 15.3754C26.294 14.7153 26.1842 14.3853 25.9228 14.1966C25.6615 14.0078 25.3143 14.0078 24.6199 14.0078H23.5051C22.8108 14.0078 22.4636 14.0078 22.2022 14.1966C21.9409 14.3853 21.8311 14.7153 21.6115 15.3754L21.2775 16.3727C21.1246 16.7713 20.8485 17.1104 20.4894 17.3404L20.1525 17.5348C19.7337 17.7499 19.2526 17.8099 18.794 17.7042L17.5737 17.3605C16.8554 17.1566 16.4962 17.0547 16.1787 17.1839C15.8611 17.313 15.6744 17.637 15.3012 18.2848L14.8076 19.1414C14.4577 19.7486 14.2827 20.0523 14.3167 20.3755C14.3506 20.6987 14.5848 20.9592 15.0533 21.4801L16.0843 22.6328C16.3363 22.9518 16.5152 23.5078 16.5152 24.0077C16.5152 24.5078 16.3364 25.0636 16.0843 25.3827L15.0533 26.5354C14.5848 27.0564 14.3506 27.3168 14.3167 27.6401C14.2827 27.9633 14.4577 28.2669 14.8076 28.8741L15.3011 29.7307C15.6744 30.3785 15.8611 30.7025 16.1787 30.8316C16.4963 30.9608 16.8554 30.8589 17.5738 30.655L18.7939 30.3113C19.2526 30.2055 19.7339 30.2656 20.1527 30.4808L20.4895 30.6752C20.8485 30.9052 21.1246 31.2442 21.2775 31.6428L21.6115 32.6403C21.8311 33.3003 21.9409 33.6303 22.2022 33.8191C22.4636 34.0078 22.8108 34.0078 23.5051 34.0078H24.6199C25.3143 34.0078 25.6615 34.0078 25.9228 33.8191C26.1842 33.6303 26.294 33.3003 26.5136 32.6403L26.8476 31.6428C27.0004 31.2442 27.2765 30.9052 27.6356 30.6752L27.9724 30.4808C28.3912 30.2656 28.8724 30.2055 29.3311 30.3113L30.5513 30.655C31.2696 30.8589 31.6288 30.9608 31.9464 30.8316C32.264 30.7025 32.4506 30.3785 32.8239 29.7307L33.3175 28.8741C33.6674 28.2669 33.8423 27.9633 33.8084 27.6401C33.7744 27.3168 33.5402 27.0564 33.0718 26.5354L32.0407 25.3827C31.7887 25.0636 31.6098 24.5078 31.6098 24.0077C31.6098 23.5078 31.7888 22.9518 32.0407 22.6328L33.0718 21.4801C33.5402 20.9592 33.7744 20.6987 33.8084 20.3755C33.8423 20.0523 33.6674 19.7486 33.3175 19.1414Z" stroke="#0A092E" stroke-width="1.5" stroke-linecap="round"/>
<path d="M27.5195 24C27.5195 25.933 25.9525 27.5 24.0195 27.5C22.0865 27.5 20.5195 25.933 20.5195 24C20.5195 22.067 22.0865 20.5 24.0195 20.5C25.9525 20.5 27.5195 22.067 27.5195 24Z" stroke="#0A092E" stroke-width="1.5"/>
</svg>
