<svg width="16" height="17" viewBox="0 0 16 17" fill="none" xmlns="http://www.w3.org/2000/svg">
<path d="M9.1518 2.79613L10.325 5.16193C10.485 5.49126 10.9116 5.80714 11.2716 5.86763L13.398 6.22385C14.7578 6.45236 15.0778 7.44707 14.0979 8.42834L12.4448 10.0952C12.1648 10.3774 12.0115 10.9218 12.0981 11.3117L12.5714 13.375C12.9447 15.0082 12.0848 15.64 10.6516 14.7864L8.65852 13.5968C8.29856 13.3817 7.70529 13.3817 7.33867 13.5968L5.34555 14.7864C3.91904 15.64 3.05247 15.0015 3.42576 13.375L3.89905 11.3117C3.9857 10.9218 3.83239 10.3774 3.55242 10.0952L1.89927 8.42834C0.926041 7.44707 1.23934 6.45236 2.59919 6.22385L4.72562 5.86763C5.07892 5.80714 5.50553 5.49126 5.66552 5.16193L6.83872 2.79613C7.47865 1.51242 8.51854 1.51242 9.1518 2.79613Z" stroke="#767B92" stroke-width="1.5" stroke-linecap="round" stroke-linejoin="round"/>
</svg>
