<svg width="20" height="20" viewBox="0 0 20 20" fill="none" xmlns="http://www.w3.org/2000/svg">
<path d="M7.61945 8.90915L7.79188 8.73671C9.44083 7.08776 12.1143 7.08776 13.7632 8.73671C15.4122 10.3857 15.4122 13.0591 13.7632 14.7081L11.3747 17.0966C9.72575 18.7456 7.05228 18.7456 5.40334 17.0966C3.75439 15.4477 3.75439 12.7742 5.40334 11.1253L5.79029 10.7383" stroke="#464B69" stroke-width="1.5" stroke-linecap="round"/>
<path d="M14.2097 9.2617L14.5966 8.87475C16.2456 7.2258 16.2456 4.55233 14.5966 2.90338C12.9477 1.25444 10.2742 1.25443 8.62526 2.90338L6.23671 5.29193C4.58776 6.94088 4.58776 9.61435 6.23671 11.2633C7.88566 12.9122 10.5591 12.9122 12.2081 11.2633L12.3805 11.0909" stroke="#464B69" stroke-width="1.5" stroke-linecap="round"/>
</svg>
