<svg width="34" height="28" viewBox="0 0 34 28" fill="none" xmlns="http://www.w3.org/2000/svg">
<path d="M5.53409 28.0001L11.022 0.501737H15.6939L15.112 3.36772C17.187 1.15753 20.0054 -0.00012207 23.3595 -0.00012207C26.6134 -0.00012207 29.2416 1.09621 30.97 3.17248C32.8085 5.38266 33.4567 8.55402 32.7984 12.1058C31.6495 18.3572 27.1215 22.3971 21.2632 22.3971C17.8353 22.3971 13.893 20.9854 12.3023 17.1494L11.9644 18.7764L10.2523 27.9939L5.53409 28.0001ZM21.8301 3.93716C17.6225 3.93716 14.6038 6.35635 13.7553 10.4075C13.2998 12.669 13.6677 14.6101 14.8216 16.0193C16.0456 17.5136 18.0693 18.3371 20.5198 18.3371C24.5309 18.3371 27.3143 15.9593 28.1541 11.8292C28.6396 9.43884 28.3017 7.44892 27.1741 6.06599C26.0465 4.68306 24.163 3.93716 21.8301 3.93716Z" fill="url(#paint0_linear_89_4106)"/>
<path d="M5.51534 27.9975V27.5921C5.51489 26.2099 5.11108 24.8579 4.35346 23.7019C3.59583 22.5459 2.51731 21.6361 1.25016 21.0842L0.95105 20.959L1.76078 16.9229L2.20382 17.0818C4.36589 17.8639 6.23504 19.2922 7.55774 21.1728C8.88044 23.0534 9.59267 25.2954 9.5978 27.5946V28.0001L5.51534 27.9975Z" fill="url(#paint1_linear_89_4106)"/>
<defs>
<linearGradient id="paint0_linear_89_4106" x1="36.7746" y1="28.0001" x2="-7.45765" y2="20.9557" gradientUnits="userSpaceOnUse">
<stop stop-color="#00DFFD"/>
<stop offset="1" stop-color="#5C0FFF"/>
</linearGradient>
<linearGradient id="paint1_linear_89_4106" x1="36.7746" y1="28.0001" x2="-7.45765" y2="20.9557" gradientUnits="userSpaceOnUse">
<stop stop-color="#00DFFD"/>
<stop offset="1" stop-color="#5C0FFF"/>
</linearGradient>
</defs>
</svg>
