<svg width="16" height="16" viewBox="0 0 16 16" fill="none" xmlns="http://www.w3.org/2000/svg">
<g clip-path="url(#clip0_89_4115)">
<path d="M12.197 11.1363C11.9041 10.8434 11.4292 10.8434 11.1363 11.1363C10.8434 11.4292 10.8434 11.9041 11.1363 12.197L12.197 11.1363ZM14.1363 15.197C14.4292 15.4898 14.9041 15.4898 15.197 15.197C15.4899 14.9041 15.4899 14.4292 15.197 14.1363L14.1363 15.197ZM11.1363 12.197L14.1363 15.197L15.197 14.1363L12.197 11.1363L11.1363 12.197Z" fill="#767B92"/>
<path d="M14.0833 7.33331C14.0833 3.60539 11.0613 0.583313 7.33334 0.583313V2.08331C10.2328 2.08331 12.5833 4.43382 12.5833 7.33331H14.0833ZM7.33334 0.583313C3.60542 0.583313 0.583344 3.60539 0.583344 7.33331H2.08334C2.08334 4.43382 4.43385 2.08331 7.33334 2.08331V0.583313ZM0.583344 7.33331C0.583344 11.0612 3.60542 14.0833 7.33334 14.0833V12.5833C4.43385 12.5833 2.08334 10.2328 2.08334 7.33331H0.583344ZM7.33334 14.0833C11.0613 14.0833 14.0833 11.0612 14.0833 7.33331H12.5833C12.5833 10.2328 10.2328 12.5833 7.33334 12.5833V14.0833Z" fill="#767B92"/>
</g>
<defs>
<clipPath id="clip0_89_4115">
<rect width="16" height="16" fill="white"/>
</clipPath>
</defs>
</svg>
