<svg width="20" height="20" viewBox="0 0 20 20" fill="none" xmlns="http://www.w3.org/2000/svg">
<path d="M15 5.83331C15.6454 5.96713 16.1324 6.19047 16.5237 6.56322C17.5 7.49316 17.5 8.98987 17.5 11.9833C17.5 14.9767 17.5 16.4734 16.5237 17.4034C15.5474 18.3333 13.976 18.3333 10.8333 18.3333H9.16667C6.02397 18.3333 4.45262 18.3333 3.47631 17.4034C2.5 16.4734 2.5 14.9767 2.5 11.9833C2.5 8.98987 2.5 7.49316 3.47631 6.56322C3.86765 6.19047 4.35459 5.96713 5 5.83331" stroke="#5C0FFF" stroke-width="1.5" stroke-linecap="round"/>
<path d="M10.0211 1.66709L10 11.6667M10.0211 1.66709C9.88555 1.66148 9.74921 1.70991 9.62778 1.81242C8.87239 2.45004 7.5 4.10737 7.5 4.10737M10.0211 1.66709C10.1426 1.67213 10.2635 1.72062 10.3723 1.81256C11.1276 2.4503 12.5 4.10737 12.5 4.10737" stroke="#5C0FFF" stroke-width="1.5" stroke-linecap="round" stroke-linejoin="round"/>
</svg>
