<svg width="16" height="16" viewBox="0 0 16 16" fill="none" xmlns="http://www.w3.org/2000/svg">
<path fill-rule="evenodd" clip-rule="evenodd" d="M5.35305 1.34564C5.32036 1.44695 5.2853 1.54719 5.24793 1.6463C5.24783 1.64657 5.24773 1.64683 5.24763 1.64709C4.60037 3.36312 3.26152 4.74116 1.55049 5.46137C1.51887 5.47468 1.48713 5.48777 1.45526 5.50062C1.40912 5.51923 1.36273 5.53737 1.31608 5.55502C1.23075 5.58732 1.14456 5.618 1.05755 5.64704L0.567206 5.81069C0.382729 5.87226 0.382729 6.12774 0.567206 6.18931L1.14804 6.38316C1.20501 6.40217 1.26162 6.42189 1.31787 6.4423C1.32418 6.44459 1.33048 6.44689 1.33678 6.44919C1.41107 6.4764 1.48474 6.50482 1.55775 6.53444C3.22431 7.21044 4.54953 8.50763 5.24049 10.1392C5.25521 10.1739 5.26965 10.2088 5.28379 10.2439C5.30149 10.2878 5.31873 10.3319 5.33552 10.3762C5.35636 10.4313 5.3765 10.4868 5.39592 10.5425L5.59389 11.1113C5.65677 11.2919 5.91768 11.2919 5.98056 11.1113L6.17854 10.5425C6.19795 10.4868 6.21809 10.4313 6.23894 10.3762C6.25572 10.3319 6.27296 10.2878 6.29066 10.2439C6.30481 10.2088 6.31924 10.1739 6.33396 10.1392C7.02492 8.50763 8.35014 7.21044 10.0167 6.53444C10.0897 6.50482 10.1634 6.4764 10.2377 6.44919C10.244 6.44689 10.2503 6.44459 10.2566 6.4423C10.3128 6.42189 10.3694 6.40217 10.4264 6.38316L11.0072 6.18931C11.1917 6.12774 11.1917 5.87226 11.0072 5.81069L10.5169 5.64704C10.4299 5.61801 10.3437 5.58732 10.2584 5.55502C10.2117 5.53737 10.1653 5.51923 10.1192 5.50062C10.0873 5.48777 10.0556 5.47468 10.024 5.46137C8.31293 4.74116 6.97409 3.36312 6.32682 1.64709C6.32673 1.64682 6.32663 1.64657 6.32653 1.6463C6.28916 1.54719 6.25409 1.44695 6.2214 1.34564C6.22145 1.34579 6.22135 1.3455 6.2214 1.34564L5.98199 0.603645C5.92187 0.417312 5.65258 0.417312 5.59246 0.603644L5.35305 1.34564C5.3531 1.3455 5.35301 1.34579 5.35305 1.34564ZM5.78723 2.91237C5.09414 4.19968 4.0403 5.26764 2.75165 5.99013C4.02519 6.68233 5.07706 7.70966 5.78723 8.95461C6.4974 7.70966 7.54926 6.68233 8.8228 5.99013C7.53416 5.26764 6.48032 4.19968 5.78723 2.91237Z" fill="url(#paint0_linear_89_4323)"/>
<path fill-rule="evenodd" clip-rule="evenodd" d="M11.7889 9.9744C11.7584 10.0385 11.7264 10.1018 11.6927 10.1641C11.306 10.8806 10.71 11.4756 9.97833 11.8779C9.92642 11.9065 9.87383 11.934 9.82058 11.9606C9.69697 12.0223 9.56982 12.0786 9.43946 12.1292C9.37398 12.1547 9.3077 12.1787 9.24065 12.2012C9.22548 12.2063 9.21026 12.2113 9.19502 12.2162L9.09633 12.2482C8.90959 12.3088 8.90959 12.5674 9.09633 12.628L9.25357 12.6789C9.29065 12.691 9.32751 12.7034 9.36413 12.7164C9.52264 12.7723 9.67675 12.8365 9.82587 12.9084C9.87983 12.9345 9.93314 12.9615 9.98577 12.9896C10.6994 13.3699 11.2882 13.9323 11.685 14.6129C11.7119 14.6592 11.738 14.706 11.7632 14.7533C11.8219 14.8636 11.8756 14.9768 11.9242 15.0926C11.9519 15.1587 11.9779 15.2257 12.0022 15.2934L12.0627 15.4621C12.1266 15.6405 12.3842 15.6405 12.4481 15.4621L12.5086 15.2934C12.5329 15.2257 12.5589 15.1587 12.5866 15.0926C12.6352 14.9768 12.6889 14.8636 12.7476 14.7533C12.7728 14.706 12.7989 14.6592 12.8258 14.6129C13.2226 13.9323 13.8114 13.3699 14.525 12.9896C14.5777 12.9615 14.631 12.9345 14.6849 12.9084C14.834 12.8365 14.9881 12.7723 15.1467 12.7163C15.1833 12.7034 15.2201 12.691 15.2572 12.6789L15.4145 12.628C15.6012 12.5674 15.6012 12.3088 15.4145 12.2482L15.3158 12.2162C15.3005 12.2113 15.2853 12.2063 15.2701 12.2012C15.2031 12.1787 15.1368 12.1547 15.0713 12.1292C14.941 12.0786 14.8138 12.0223 14.6902 11.9606C14.637 11.934 14.5844 11.9065 14.5325 11.8779C13.8007 11.4756 13.2048 10.8806 12.818 10.1641C12.7844 10.1018 12.7523 10.0385 12.7219 9.9744C12.6815 9.88923 12.6439 9.80252 12.6094 9.71439C12.5833 9.6478 12.5589 9.5804 12.5362 9.51223L12.4496 9.25148C12.3885 9.06729 12.1223 9.06729 12.0612 9.25148L11.9745 9.51223C11.9519 9.5804 11.9275 9.6478 11.9014 9.71439C11.8668 9.80252 11.8293 9.88923 11.7889 9.9744ZM12.2554 11.177C11.9109 11.6594 11.4843 12.0819 10.9947 12.4272C11.481 12.7608 11.9074 13.1697 12.2554 13.6378C12.6034 13.1697 13.0298 12.7608 13.5161 12.4272C13.0265 12.0819 12.5998 11.6594 12.2554 11.177Z" fill="url(#paint1_linear_89_4323)"/>
<path fill-rule="evenodd" clip-rule="evenodd" d="M12.6473 0.531311C12.6285 0.570869 12.6086 0.609888 12.5878 0.648342C12.3484 1.09044 11.9794 1.45763 11.5264 1.70585C11.4942 1.72346 11.4617 1.74047 11.4287 1.75687C11.3522 1.79493 11.2735 1.82968 11.1928 1.86092C11.1522 1.87661 11.1112 1.89142 11.0697 1.90531C11.0603 1.90846 11.0509 1.91156 11.0414 1.91461L10.9803 1.93435C10.8647 1.97171 10.8647 2.1313 10.9803 2.16865L11.0777 2.20011C11.1006 2.20753 11.1234 2.21523 11.1461 2.22319C11.2443 2.25769 11.3397 2.29731 11.432 2.34172C11.4654 2.35779 11.4984 2.37449 11.531 2.39179C11.9728 2.62646 12.3373 2.9735 12.583 3.39346C12.5997 3.422 12.6158 3.45087 12.6314 3.48006C12.6678 3.54814 12.701 3.61799 12.7311 3.68944C12.7483 3.73023 12.7644 3.77153 12.7794 3.81333L12.8168 3.91745C12.8564 4.02752 13.0159 4.02752 13.0555 3.91745L13.0929 3.81333C13.108 3.77153 13.1241 3.73023 13.1412 3.68944C13.1713 3.61799 13.2046 3.54814 13.2409 3.48006C13.2565 3.45087 13.2726 3.422 13.2893 3.39346C13.535 2.9735 13.8995 2.62646 14.3413 2.39179C14.3739 2.37449 14.4069 2.35779 14.4403 2.34172C14.5327 2.29731 14.6281 2.25769 14.7262 2.22319C14.7489 2.21523 14.7717 2.20753 14.7947 2.20011L14.892 2.16865C15.0076 2.1313 15.0076 1.97171 14.892 1.93435L14.8309 1.91461C14.8215 1.91156 14.812 1.90846 14.8027 1.90531C14.7611 1.89142 14.7201 1.87661 14.6796 1.86092C14.5989 1.82968 14.5201 1.79493 14.4436 1.75687C14.4106 1.74047 14.3781 1.72346 14.3459 1.70585C13.8929 1.45763 13.524 1.09044 13.2845 0.648342C13.2637 0.609888 13.2438 0.570869 13.225 0.531311C13.2 0.478757 13.1767 0.425254 13.1553 0.37087C13.1392 0.329782 13.1241 0.288192 13.11 0.246129L13.0564 0.0852406C13.0185 -0.0284134 12.8538 -0.0284136 12.8159 0.0852405L12.7623 0.246129C12.7483 0.288192 12.7332 0.329782 12.717 0.370869C12.6956 0.425253 12.6724 0.478757 12.6473 0.531311ZM12.9362 1.27339C12.7229 1.57102 12.4588 1.8317 12.1556 2.04479C12.4567 2.2506 12.7207 2.50291 12.9362 2.79175C13.1516 2.50291 13.4156 2.2506 13.7167 2.04479C13.4136 1.8317 13.1494 1.57102 12.9362 1.27339Z" fill="url(#paint2_linear_89_4323)"/>
<defs>
<linearGradient id="paint0_linear_89_4323" x1="8.95134" y1="15.5959" x2="0.172243" y2="7.0261" gradientUnits="userSpaceOnUse">
<stop stop-color="#00DFFD"/>
<stop offset="1" stop-color="#5C0FFF"/>
</linearGradient>
<linearGradient id="paint1_linear_89_4323" x1="8.95134" y1="15.5959" x2="0.172243" y2="7.0261" gradientUnits="userSpaceOnUse">
<stop stop-color="#00DFFD"/>
<stop offset="1" stop-color="#5C0FFF"/>
</linearGradient>
<linearGradient id="paint2_linear_89_4323" x1="8.95134" y1="15.5959" x2="0.172243" y2="7.0261" gradientUnits="userSpaceOnUse">
<stop stop-color="#00DFFD"/>
<stop offset="1" stop-color="#5C0FFF"/>
</linearGradient>
</defs>
</svg>
